<?xml version="1.0" encoding="utf-8"?>
<svg version="1.1" xmlns:xlink="http://www.w3.org/1999/xlink" width="12px" height="12px" viewBox="372 278  12 12" xmlns="http://www.w3.org/2000/svg">
  <path d="M 378 278  C 381.36 278  384 280.64  384 284  C 384 287.36  381.36 290  378 290  C 374.64 290  372 287.36  372 284  C 372 280.64  374.64 278  378 278  Z " fill-rule="nonzero" fill="#ffffff" stroke="none" />
  <path d="M 378 278.5  C 381.08 278.5  383.5 280.92  383.5 284  C 383.5 287.08  381.08 289.5  378 289.5  C 374.92 289.5  372.5 287.08  372.5 284  C 372.5 280.92  374.92 278.5  378 278.5  Z " stroke-width="1" stroke="#797979" fill="none" />
  <path d="M 378 287  C 376.32 287  375 285.68  375 284  C 375 282.32  376.32 281  378 281  C 379.68 281  381 282.32  381 284  C 381 285.68  379.68 287  378 287  " fill-rule="nonzero" fill="#797979" stroke="none" />
</svg>